<?xml version="1.0" encoding="UTF-8"?>
<svg id="Calque_2" data-name="Calque 2" xmlns="http://www.w3.org/2000/svg" xmlns:xlink="http://www.w3.org/1999/xlink" viewBox="0 0 589.47 231.09">
  <defs>
    <style>
      .cls-1 {
        fill: #312783;
        stroke: #1d1d1b;
        stroke-miterlimit: 10;
      }
    </style>
    <symbol id="ARtisane" viewBox="0 0 589.47 231.09">
      <g>
        <polygon class="cls-1" points="37.9 54.8 75.32 193.97 40.88 8.45 .48 156.13 37.9 54.8"/>
        <polygon class="cls-1" points="387.9 91.8 425.32 230.96 390.88 45.44 350.48 193.12 387.9 91.8"/>
        <path class="cls-1" d="M91.54,58.78l44.04-28.48L51.48,8.45l34.44,181.46-10.6-125.17,56.29,125.17L91.54,58.78ZM74.57,48.84l-7.86-28.48,41.72,12.05-33.86,16.43Z"/>
        <polygon class="cls-1" points="161.41 .5 168.63 .5 157.3 32.86 161.41 .5"/>
        <polygon class="cls-1" points="173.99 34.61 289.22 34.61 235.9 44.6 233.59 189.9 223.33 45.69 173.99 34.61"/>
        <polygon class="cls-1" points="268.61 51.95 260 129.6 268.61 207.25 276.55 129.6 268.61 51.95"/>
        <polygon class="cls-1" points="350.48 46.07 311.68 19.78 287.54 86.61 348.88 129.29 320.8 166.24 284.87 149.03 324.34 182.64 362.75 126.09 300.34 83.41 313.07 36.83 350.48 46.07"/>
        <polygon class="cls-1" points="435.97 194.97 418.84 35.48 478.71 129.13 501.11 4.76 485.96 167.92 435.37 74.88 435.97 194.97"/>
        <polygon class="cls-1" points="580.7 57.28 521.76 42.71 499.25 120.9 521.1 199.09 584.68 182.44 529.71 185.17 512.04 126.33 563.48 124.16 511.83 115.55 526.86 56.15 580.7 57.28"/>
      </g>
    </symbol>
  </defs>
  <g id="PAGE_1" data-name="PAGE 1">
    <use width="589.47" height="231.09" xlink:href="#ARtisane"/>
  </g>
</svg>